# xmcd
# 
# Track frame offsets:
#     150
#     15252
#     34504
#     38790
#     51795
#     64967
#     90107
#     109349
#     120184
#     137918
#     158161
#     190706
#     209070
# 
# Disc length: 2953
# 
# Revision: 1
# Processed by: cddbd v1.5.2PL0 Copyright (c) Steve Scherf et al.
# Submitted via: fre:ac v1.0.17
# 
DISCID=a30b870d
DTITLE=Various Artist - Mondland
DYEAR=0
DGENRE=New Age
TTITLE0=Ballycotton - Dinner with Ina
TTITLE1=Ballycotton - Bettelwalzer
TTITLE2=Ballycotton - Letting Come
TTITLE3=Ballycotton - Letting Go
TTITLE4=Ballycotton - Lonesome Whiskey
TTITLE5=Ballycotton - The Flood
TTITLE6=Ballycotton - Me in the Middle
TTITLE7=Ballycotton - Mondland
TTITLE8=Ballycotton - Valhalla
TTITLE9=Ballycotton - Knights Night
TTITLE10=Ballycotton - Variations on a Moment
TTITLE11=Ballycotton - JoEh
TTITLE12=Ballycotton - The Flood(Radio Edit)
EXTD=
EXTT0=
EXTT1=
EXTT2=
EXTT3=
EXTT4=
EXTT5=
EXTT6=
EXTT7=
EXTT8=
EXTT9=
EXTT10=
EXTT11=
EXTT12=
PLAYORDER=
